<svg xmlns="http://www.w3.org/2000/svg" width="43" height="42" viewBox="0 0 43 42" fill="none">
  <mask id="mask0_136_594" style="mask-type:alpha" maskUnits="userSpaceOnUse" x="0" y="0" width="43" height="42">
    <rect x="0.5" width="42" height="42" fill="#D9D9D9"/>
  </mask>
  <g mask="url(#mask0_136_594)">
    <path d="M6.1875 38.7018C5.81563 38.7018 5.50391 38.576 5.25234 38.3243C5.00078 38.0726 4.875 37.7608 4.875 37.3887C4.875 37.0167 5.00078 36.7051 5.25234 36.4538C5.50391 36.2025 5.81563 36.0769 6.1875 36.0769H36.8124C37.1843 36.0769 37.496 36.2027 37.7476 36.4544C37.9991 36.7061 38.1249 37.0179 38.1249 37.3899C38.1249 37.7619 37.9991 38.0736 37.7476 38.3249C37.496 38.5762 37.1843 38.7018 36.8124 38.7018H6.1875ZM9.95674 34.1249C9.50859 34.1249 9.13294 33.9734 8.82978 33.6702C8.52659 33.367 8.375 32.9914 8.375 32.5432V24.7692C7.39007 22.9811 6.63791 21.1823 6.11851 19.3728C5.59914 17.5634 5.33945 15.7848 5.33945 14.037C5.33945 12.4598 5.54025 10.8696 5.94184 9.26659C6.34344 7.66356 6.87853 5.95788 7.54712 4.14954C7.71314 3.69411 7.98573 3.32617 8.36489 3.04573C8.74406 2.76527 9.17595 2.62503 9.66055 2.62503C10.3067 2.62503 10.8552 2.85557 11.3062 3.31663C11.7571 3.77767 11.9411 4.31891 11.8581 4.94037L11.3937 8.73651C11.2187 10.2038 11.3735 11.6207 11.8581 12.987C12.3427 14.3534 13.0556 15.5638 13.9968 16.6183C14.938 17.6728 16.057 18.5209 17.3538 19.1625C18.6506 19.8042 20.0326 20.125 21.5 20.125C23.2836 20.125 24.9876 20.2793 26.612 20.5878C28.2363 20.8963 29.6374 21.3411 30.8153 21.9222C32.0268 22.5257 32.9646 23.2975 33.6287 24.2375C34.2929 25.1776 34.6249 26.3442 34.6249 27.7375V32.5432C34.6249 32.9914 34.4733 33.367 34.1701 33.6702C33.867 33.9734 33.4913 34.1249 33.0432 34.1249H17.5961V32.9605C17.5961 31.8903 17.9638 30.9755 18.6991 30.2161C19.4344 29.4566 20.3456 29.0769 21.4326 29.0769H26.5817C26.9535 29.0769 27.2652 28.951 27.5168 28.6994C27.7684 28.4477 27.8942 28.1358 27.8942 27.7638C27.8942 27.3918 27.7684 27.0801 27.5168 26.8288C27.2652 26.5776 26.9535 26.4519 26.5817 26.4519H21.4326C19.6355 26.4519 18.1093 27.0874 16.8541 28.3584C15.5988 29.6294 14.9711 31.1634 14.9711 32.9605V34.1249H9.95674ZM21.5 17.9712C19.8156 17.9712 18.3737 17.3714 17.1742 16.172C15.9747 14.9725 15.375 13.5306 15.375 11.8462C15.375 10.1619 15.9747 8.71998 17.1742 7.52053C18.3737 6.32105 19.8156 5.72131 21.5 5.72131C23.1843 5.72131 24.6262 6.32105 25.8257 7.52053C27.0252 8.71998 27.6249 10.1619 27.6249 11.8462C27.6249 13.5306 27.0252 14.9725 25.8257 16.172C24.6262 17.3714 23.1843 17.9712 21.5 17.9712Z" fill="#52AB66"/>
  </g>
</svg>