<svg xmlns="http://www.w3.org/2000/svg" width="42" height="42" viewBox="0 0 42 42" fill="none">
  <mask id="mask0_136_588" style="mask-type:alpha" maskUnits="userSpaceOnUse" x="0" y="0" width="42" height="42">
    <rect width="42" height="42" fill="#D9D9D9"/>
  </mask>
  <g mask="url(#mask0_136_588)">
    <path d="M32.981 20.9562C32.981 18.5466 32.3365 16.3485 31.0475 14.3618C29.7586 12.3751 28.0293 10.8915 25.8598 9.91107C25.5233 9.75176 25.2754 9.51393 25.1161 9.19759C24.9568 8.88125 24.9388 8.56043 25.0622 8.23513C25.2036 7.88064 25.4526 7.63497 25.8093 7.49812C26.166 7.36127 26.5272 7.37249 26.8929 7.53177C29.5314 8.72985 31.6432 10.5326 33.2282 12.9399C34.8133 15.3473 35.6059 18.0194 35.6059 20.9562C35.6059 23.8931 34.8133 26.5652 33.2282 28.9725C31.6432 31.3799 29.5314 33.1826 26.8929 34.3807C26.5272 34.54 26.166 34.5512 25.8093 34.4143C25.4526 34.2775 25.2036 34.0318 25.0622 33.6773C24.9388 33.352 24.9568 33.0312 25.1161 32.7149C25.2754 32.3985 25.5233 32.1607 25.8598 32.0014C28.0293 31.021 29.7586 29.5374 31.0475 27.5507C32.3365 25.564 32.981 23.3658 32.981 20.9562ZM12.8897 25.3749H7.97623C7.52528 25.3749 7.14893 25.224 6.84717 24.9223C6.54541 24.6205 6.39453 24.2442 6.39453 23.7932V18.2068C6.39453 17.7558 6.54541 17.3795 6.84717 17.0777C7.14893 16.7759 7.52528 16.625 7.97623 16.625H12.8897L18.1262 11.3885C18.5457 10.969 19.0286 10.8731 19.5749 11.1008C20.1212 11.3285 20.3944 11.7408 20.3944 12.3376V29.6624C20.3944 30.2592 20.1212 30.6714 19.5749 30.8992C19.0286 31.1269 18.5457 31.031 18.1262 30.6114L12.8897 25.3749ZM28.2694 21C28.2694 22.0904 28.0428 23.1235 27.5896 24.0995C27.1364 25.0754 26.525 25.8966 25.7555 26.5629C25.5087 26.7267 25.249 26.7424 24.9764 26.61C24.7038 26.4777 24.5675 26.2589 24.5675 25.9538V15.9587C24.5675 15.6536 24.7038 15.4348 24.9764 15.3024C25.249 15.1701 25.5087 15.1858 25.7555 15.3495C26.525 16.0338 27.1364 16.8741 27.5896 17.8702C28.0428 18.8664 28.2694 19.9096 28.2694 21Z" fill="#52AB66"/>
  </g>
</svg>