<svg xmlns="http://www.w3.org/2000/svg" width="43" height="42" viewBox="0 0 43 42" fill="none">
  <mask id="mask0_136_744" style="mask-type:alpha" maskUnits="userSpaceOnUse" x="0" y="0" width="43" height="42">
    <rect x="0.5" width="42" height="42" fill="#D9D9D9"/>
  </mask>
  <g mask="url(#mask0_136_744)">
    <path d="M6.1875 38.7018C5.81563 38.7018 5.50391 38.576 5.25234 38.3243C5.00078 38.0726 4.875 37.7608 4.875 37.3887C4.875 37.0167 5.00078 36.7051 5.25234 36.4538C5.50391 36.2025 5.81563 36.0769 6.1875 36.0769H36.8124C37.1843 36.0769 37.496 36.2027 37.7476 36.4544C37.9991 36.7061 38.1249 37.0179 38.1249 37.3899C38.1249 37.7619 37.9991 38.0736 37.7476 38.3249C37.496 38.5762 37.1843 38.7018 36.8124 38.7018H6.1875ZM9.95674 34.1249C9.50859 34.1249 9.13294 33.9734 8.82978 33.6702C8.52659 33.367 8.375 32.9914 8.375 32.5432V24.7692C7.39007 22.9811 6.63791 21.1823 6.11851 19.3728C5.59914 17.5634 5.33945 15.7848 5.33945 14.037C5.33945 12.4598 5.54025 10.8696 5.94184 9.26659C6.34344 7.66356 6.87853 5.95788 7.54712 4.14954C7.71314 3.69411 7.98573 3.32617 8.36489 3.04573C8.74406 2.76527 9.17595 2.62503 9.66055 2.62503C10.3067 2.62503 10.8552 2.85557 11.3062 3.31663C11.7571 3.77767 11.9411 4.31891 11.8581 4.94037L11.3937 8.73651C11.2187 10.2038 11.3735 11.6207 11.8581 12.987C12.3427 14.3534 13.0556 15.5638 13.9968 16.6183C14.938 17.6728 16.057 18.5209 17.3538 19.1625C18.6506 19.8042 20.0326 20.125 21.5 20.125C23.2836 20.125 24.9876 20.2793 26.612 20.5878C28.2363 20.8963 29.6374 21.3411 30.8153 21.9222C32.0268 22.5257 32.9646 23.2975 33.6287 24.2375C34.2929 25.1776 34.6249 26.3442 34.6249 27.7375V32.5432C34.6249 32.9914 34.4733 33.367 34.1701 33.6702C33.867 33.9734 33.4913 34.1249 33.0432 34.1249H9.95674ZM11 31.5H32V27.7375C32 26.9814 31.8081 26.3167 31.4245 25.7435C31.0408 25.1703 30.4833 24.7064 29.7519 24.3519C28.6794 23.8359 27.4062 23.4399 25.9322 23.1639C24.4582 22.888 22.9807 22.75 21.5 22.75C19.6423 22.75 17.8951 22.345 16.2584 21.5351C14.6217 20.7251 13.2161 19.651 12.0416 18.3127C10.867 16.9744 9.97971 15.4432 9.37954 13.719C8.77938 11.9948 8.59035 10.2218 8.81246 8.39999C8.52079 9.27499 8.30933 10.1971 8.17808 11.1663C8.04683 12.1356 7.98121 13.0924 7.98121 14.037C7.98121 15.6277 8.26054 17.2425 8.81919 18.8815C9.37782 20.5204 10.1047 22.2407 11 24.0423V31.5ZM21.5 17.9712C19.8156 17.9712 18.3737 17.3714 17.1742 16.172C15.9747 14.9725 15.375 13.5306 15.375 11.8462C15.375 10.1619 15.9747 8.71998 17.1742 7.52053C18.3737 6.32105 19.8156 5.72131 21.5 5.72131C23.1843 5.72131 24.6262 6.32105 25.8257 7.52053C27.0252 8.71998 27.6249 10.1619 27.6249 11.8462C27.6249 13.5306 27.0252 14.9725 25.8257 16.172C24.6262 17.3714 23.1843 17.9712 21.5 17.9712ZM21.5 15.3462C22.4625 15.3462 23.2864 15.0035 23.9718 14.3181C24.6572 13.6327 25 12.8087 25 11.8462C25 10.8837 24.6572 10.0598 23.9718 9.37434C23.2864 8.68893 22.4625 8.34622 21.5 8.34622C20.5375 8.34622 19.7135 8.68893 19.0281 9.37434C18.3427 10.0598 18 10.8837 18 11.8462C18 12.8087 18.3427 13.6327 19.0281 14.3181C19.7135 15.0035 20.5375 15.3462 21.5 15.3462ZM14.9711 34.1249V32.9605C14.9711 31.1634 15.5988 29.6294 16.8541 28.3584C18.1093 27.0874 19.6355 26.4519 21.4326 26.4519H26.5817C26.9535 26.4519 27.2652 26.5778 27.5168 26.8294C27.7684 27.0811 27.8942 27.3929 27.8942 27.765C27.8942 28.137 27.7684 28.4487 27.5168 28.6999C27.2652 28.9512 26.9535 29.0769 26.5817 29.0769H21.4326C20.3456 29.0769 19.4344 29.4566 18.6991 30.2161C17.9638 30.9755 17.5961 31.8903 17.5961 32.9605V34.1249H14.9711Z" fill="#AAAEC1"/>
  </g>
</svg>