<svg xmlns="http://www.w3.org/2000/svg" width="42" height="42" viewBox="0 0 42 42" fill="none">
  <mask id="mask0_136_739" style="mask-type:alpha" maskUnits="userSpaceOnUse" x="0" y="0" width="42" height="42">
    <rect width="42" height="42" fill="#D9D9D9"/>
  </mask>
  <g mask="url(#mask0_136_739)">
    <path d="M10.5 37.6249C9.27723 37.6249 8.24238 37.2015 7.39541 36.3545C6.54847 35.5076 6.125 34.4727 6.125 33.25V31.3654C6.125 30.4954 6.43476 29.7507 7.05429 29.1312C7.67379 28.5117 8.41852 28.2019 9.28848 28.2019H11.375V7.53851C11.375 6.66855 11.6848 5.92383 12.3043 5.30433C12.9238 4.6848 13.6685 4.37503 14.5385 4.37503H32.7114C33.5814 4.37503 34.3261 4.6848 34.9456 5.30433C35.5651 5.92383 35.8749 6.66855 35.8749 7.53851V33.25C35.8749 34.4727 35.4514 35.5076 34.6045 36.3545C33.7575 37.2015 32.7227 37.6249 31.5 37.6249H10.5ZM31.5 35C31.9958 35 32.4114 34.8323 32.7468 34.4969C33.0823 34.1614 33.25 33.7458 33.25 33.25V7.53851C33.25 7.38145 33.1995 7.25242 33.0985 7.15145C32.9975 7.05047 32.8685 6.99999 32.7114 6.99999H14.5385C14.3814 6.99999 14.2524 7.05047 14.1514 7.15145C14.0504 7.25242 14 7.38145 14 7.53851V28.2019H26.5865C27.4565 28.2019 28.2012 28.5117 28.8207 29.1312C29.4402 29.7507 29.75 30.4954 29.75 31.3654V33.25C29.75 33.7458 29.9177 34.1614 30.2531 34.4969C30.5885 34.8323 31.0041 35 31.5 35ZM17.399 15.2115C17.0271 15.2115 16.7154 15.0856 16.4639 14.834C16.2123 14.5823 16.0865 14.2705 16.0865 13.8984C16.0865 13.5264 16.2123 13.2147 16.4639 12.9635C16.7154 12.7122 17.0271 12.5866 17.399 12.5866H29.8509C30.2228 12.5866 30.5345 12.7124 30.786 12.9641C31.0376 13.2157 31.1634 13.5276 31.1634 13.8996C31.1634 14.2716 31.0376 14.5833 30.786 14.8346C30.5345 15.0858 30.2228 15.2115 29.8509 15.2115H17.399ZM17.399 20.2596C17.0271 20.2596 16.7154 20.1337 16.4639 19.882C16.2123 19.6304 16.0865 19.3185 16.0865 18.9465C16.0865 18.5744 16.2123 18.2628 16.4639 18.0115C16.7154 17.7602 17.0271 17.6346 17.399 17.6346H29.8509C30.2228 17.6346 30.5345 17.7604 30.786 18.0121C31.0376 18.2638 31.1634 18.5756 31.1634 18.9477C31.1634 19.3197 31.0376 19.6314 30.786 19.8827C30.5345 20.1339 30.2228 20.2596 29.8509 20.2596H17.399ZM10.5 35H27.125V31.3654C27.125 31.2083 27.0745 31.0793 26.9736 30.9783C26.8726 30.8773 26.7436 30.8269 26.5865 30.8269H9.28848C9.13141 30.8269 9.00239 30.8773 8.90142 30.9783C8.80044 31.0793 8.74996 31.2083 8.74996 31.3654V33.25C8.74996 33.7458 8.91766 34.1614 9.25308 34.4969C9.5885 34.8323 10.0041 35 10.5 35ZM10.5 35H8.74996H27.125H10.5Z" fill="#AAAEC1"/>
  </g>
</svg>