<svg xmlns="http://www.w3.org/2000/svg" width="42" height="42" viewBox="0 0 42 42" fill="none">
  <mask id="mask0_136_521" style="mask-type:alpha" maskUnits="userSpaceOnUse" x="0" y="0" width="42" height="42">
    <rect width="42" height="42" fill="#D9D9D9"/>
  </mask>
  <g mask="url(#mask0_136_521)">
    <path d="M32.981 20.9562C32.981 18.5501 32.3363 16.3541 31.0468 14.3683C29.7574 12.3825 28.0284 10.8967 25.8598 9.91107C25.5233 9.75176 25.2754 9.51393 25.1161 9.19759C24.9568 8.88125 24.9373 8.55862 25.0576 8.22971C25.202 7.87883 25.4526 7.63497 25.8093 7.49812C26.166 7.36127 26.5272 7.37249 26.8929 7.53177C29.5314 8.72985 31.6432 10.5323 33.2282 12.9393C34.8133 15.3462 35.6059 18.0183 35.6059 20.9556C35.6059 23.8929 34.8133 26.5652 33.2282 28.9725C31.6432 31.3799 29.5314 33.1826 26.8929 34.3807C26.5272 34.54 26.166 34.5512 25.8093 34.4143C25.4526 34.2775 25.202 34.0336 25.0576 33.6828C24.9373 33.3538 24.9568 33.0312 25.1161 32.7149C25.2754 32.3985 25.5233 32.1607 25.8598 32.0014C28.0284 31.0157 29.7574 29.53 31.0468 27.5442C32.3363 25.5584 32.981 23.3624 32.981 20.9562ZM12.8897 25.3749H7.97623C7.52808 25.3749 7.15243 25.2233 6.84927 24.9202C6.54611 24.617 6.39453 24.2414 6.39453 23.7932V18.2068C6.39453 17.7586 6.54611 17.383 6.84927 17.0798C7.15243 16.7766 7.52808 16.625 7.97623 16.625H12.8897L18.1262 11.3885C18.5457 10.969 19.0286 10.8743 19.5749 11.1045C20.1212 11.3347 20.3944 11.7457 20.3944 12.3376V29.6624C20.3944 30.2543 20.1212 30.6653 19.5749 30.8955C19.0286 31.1256 18.5457 31.031 18.1262 30.6114L12.8897 25.3749ZM28.2694 21.0019C28.2694 22.0935 28.0428 23.1267 27.5896 24.1014C27.1364 25.0761 26.5256 25.8955 25.7571 26.5596C25.5093 26.7256 25.249 26.7424 24.9764 26.61C24.7038 26.4777 24.5675 26.2589 24.5675 25.9538V15.9587C24.5675 15.6536 24.7038 15.4348 24.9764 15.3024C25.249 15.1701 25.5093 15.186 25.7571 15.3501C26.5256 16.034 27.1364 16.8741 27.5896 17.8702C28.0428 18.8664 28.2694 19.9103 28.2694 21.0019ZM17.7694 15.4875L14.0069 19.25H9.01944V22.75H14.0069L17.7694 26.5125V15.4875Z" fill="#AAAEC1"/>
  </g>
</svg>