<svg xmlns="http://www.w3.org/2000/svg" width="25" height="24" viewBox="0 0 25 24" fill="none">
  <mask id="mask0_241_186" style="mask-type:alpha" maskUnits="userSpaceOnUse" x="0" y="0" width="25" height="24">
    <rect x="0.5" width="24" height="24" fill="#D9D9D9"/>
  </mask>
  <g mask="url(#mask0_241_186)">
    <path d="M7.5 14H13.5C13.7833 14 14.0208 13.9042 14.2125 13.7125C14.4042 13.5208 14.5 13.2833 14.5 13C14.5 12.7167 14.4042 12.4792 14.2125 12.2875C14.0208 12.0958 13.7833 12 13.5 12H7.5C7.21667 12 6.97917 12.0958 6.7875 12.2875C6.59583 12.4792 6.5 12.7167 6.5 13C6.5 13.2833 6.59583 13.5208 6.7875 13.7125C6.97917 13.9042 7.21667 14 7.5 14ZM7.5 11H17.5C17.7833 11 18.0208 10.9042 18.2125 10.7125C18.4042 10.5208 18.5 10.2833 18.5 10C18.5 9.71667 18.4042 9.47917 18.2125 9.2875C18.0208 9.09583 17.7833 9 17.5 9H7.5C7.21667 9 6.97917 9.09583 6.7875 9.2875C6.59583 9.47917 6.5 9.71667 6.5 10C6.5 10.2833 6.59583 10.5208 6.7875 10.7125C6.97917 10.9042 7.21667 11 7.5 11ZM7.5 8H17.5C17.7833 8 18.0208 7.90417 18.2125 7.7125C18.4042 7.52083 18.5 7.28333 18.5 7C18.5 6.71667 18.4042 6.47917 18.2125 6.2875C18.0208 6.09583 17.7833 6 17.5 6H7.5C7.21667 6 6.97917 6.09583 6.7875 6.2875C6.59583 6.47917 6.5 6.71667 6.5 7C6.5 7.28333 6.59583 7.52083 6.7875 7.7125C6.97917 7.90417 7.21667 8 7.5 8ZM6.5 18L4.2 20.3C3.88333 20.6167 3.52083 20.6875 3.1125 20.5125C2.70417 20.3375 2.5 20.025 2.5 19.575V4C2.5 3.45 2.69583 2.97917 3.0875 2.5875C3.47917 2.19583 3.95 2 4.5 2H20.5C21.05 2 21.5208 2.19583 21.9125 2.5875C22.3042 2.97917 22.5 3.45 22.5 4V16C22.5 16.55 22.3042 17.0208 21.9125 17.4125C21.5208 17.8042 21.05 18 20.5 18H6.5ZM5.65 16H20.5V4H4.5V17.125L5.65 16Z" fill="#FEFEFF"/>
  </g>
</svg>