<svg xmlns="http://www.w3.org/2000/svg" width="19" height="18" viewBox="0 0 19 18" fill="none">
  <mask id="mask0_223_255" style="mask-type:alpha" maskUnits="userSpaceOnUse" x="0" y="0" width="19" height="18">
    <rect x="0.507935" width="18" height="18" fill="#D9D9D9"/>
  </mask>
  <g mask="url(#mask0_223_255)">
    <path d="M7.67047 11.3625L14.0267 5.00625C14.1767 4.85625 14.3548 4.78125 14.5611 4.78125C14.7673 4.78125 14.9455 4.85625 15.0955 5.00625C15.2455 5.15625 15.3205 5.33438 15.3205 5.54063C15.3205 5.74688 15.2455 5.925 15.0955 6.075L8.19547 12.975C8.04547 13.125 7.87047 13.2 7.67047 13.2C7.47047 13.2 7.29547 13.125 7.14547 12.975L3.92047 9.75C3.77047 9.6 3.69859 9.42188 3.70484 9.21563C3.71109 9.00938 3.78922 8.83125 3.93922 8.68125C4.08922 8.53125 4.26734 8.45625 4.47359 8.45625C4.67984 8.45625 4.85797 8.53125 5.00797 8.68125L7.67047 11.3625Z" fill="#FEFEFF"/>
  </g>
</svg>