<svg xmlns="http://www.w3.org/2000/svg" width="19" height="18" viewBox="0 0 19 18" fill="none">
  <mask id="mask0_223_249" style="mask-type:alpha" maskUnits="userSpaceOnUse" x="0" y="0" width="19" height="18">
    <rect x="0.507935" width="18" height="18" fill="#D9D9D9"/>
  </mask>
  <g mask="url(#mask0_223_249)">
    <path d="M9.50791 10.05L5.83291 13.725C5.69541 13.8625 5.52041 13.9313 5.30791 13.9313C5.09541 13.9313 4.92041 13.8625 4.78291 13.725C4.64541 13.5875 4.57666 13.4125 4.57666 13.2C4.57666 12.9875 4.64541 12.8125 4.78291 12.675L8.45791 9.00001L4.78291 5.32501C4.64541 5.18751 4.57666 5.01251 4.57666 4.80001C4.57666 4.58751 4.64541 4.41251 4.78291 4.27501C4.92041 4.13751 5.09541 4.06876 5.30791 4.06876C5.52041 4.06876 5.69541 4.13751 5.83291 4.27501L9.50791 7.95001L13.1829 4.27501C13.3204 4.13751 13.4954 4.06876 13.7079 4.06876C13.9204 4.06876 14.0954 4.13751 14.2329 4.27501C14.3704 4.41251 14.4392 4.58751 14.4392 4.80001C14.4392 5.01251 14.3704 5.18751 14.2329 5.32501L10.5579 9.00001L14.2329 12.675C14.3704 12.8125 14.4392 12.9875 14.4392 13.2C14.4392 13.4125 14.3704 13.5875 14.2329 13.725C14.0954 13.8625 13.9204 13.9313 13.7079 13.9313C13.4954 13.9313 13.3204 13.8625 13.1829 13.725L9.50791 10.05Z" fill="#FEFEFF"/>
  </g>
</svg>