<svg xmlns="http://www.w3.org/2000/svg" width="16" height="16" viewBox="0 0 16 16" fill="none">
  <mask id="mask0_223_879" style="mask-type:alpha" maskUnits="userSpaceOnUse" x="0" y="0" width="16" height="16">
    <rect width="16" height="16" fill="#D9D9D9"/>
  </mask>
  <g mask="url(#mask0_223_879)">
    <path d="M9.64999 7.99996L4.74999 3.09996C4.58333 2.93329 4.50277 2.73607 4.50833 2.50829C4.51388 2.28051 4.59999 2.08329 4.76666 1.91663C4.93333 1.74996 5.13055 1.66663 5.35833 1.66663C5.5861 1.66663 5.78333 1.74996 5.94999 1.91663L11.0667 7.04996C11.2 7.18329 11.3 7.33329 11.3667 7.49996C11.4333 7.66663 11.4667 7.83329 11.4667 7.99996C11.4667 8.16663 11.4333 8.33329 11.3667 8.49996C11.3 8.66663 11.2 8.81663 11.0667 8.94996L5.93333 14.0833C5.76666 14.25 5.57221 14.3305 5.34999 14.325C5.12777 14.3194 4.93333 14.2333 4.76666 14.0666C4.59999 13.9 4.51666 13.7027 4.51666 13.475C4.51666 13.2472 4.59999 13.05 4.76666 12.8833L9.64999 7.99996Z" fill="#AAAEC1"/>
  </g>
</svg>