<svg width="284" height="284" viewBox="0 0 284 284" fill="none" xmlns="http://www.w3.org/2000/svg">
<path d="M120.518 11.7789C125.9 10.5548 139.784 11.0942 152.268 23.0438C164.751 34.9934 165.187 50.181 163.845 56.2811" stroke="#545869" stroke-width="8" stroke-linecap="round"/>
<!-- <path d="M65.9077 74.864L80.5977 60.0488C82.542 58.0879 85.7078 58.0745 87.6687 60.0188L130.285 102.275C132.246 104.219 132.259 107.385 130.315 109.346L115.625 124.161L65.9077 74.864Z" fill="#545869"/> -->
<!-- <path d="M184.908 186.864L199.598 172.049C201.542 170.088 204.708 170.075 206.669 172.019L249.357 214.347C251.318 216.291 251.332 219.457 249.387 221.418L234.697 236.233L184.908 186.864Z" fill="#545869"/> -->
<path fill-rule="evenodd" clip-rule="evenodd" d="M46.986 93.8107C46.747 94.0517 46.5327 94.3079 46.343 94.5761L46.2645 94.4983C27.1304 113.796 27.2626 144.95 46.5598 164.084L142.576 259.289C161.044 277.601 190.373 278.267 209.631 261.375L209.697 261.44L210.97 260.156C211.372 259.777 211.77 259.389 212.162 258.994L212.142 258.974L235.054 235.867L185.265 186.498L163.125 208.826C162.476 208.755 161.844 208.642 161.242 208.504L97.3813 145.183C97.2286 144.18 97.2892 143.269 97.4624 142.487L117.908 121.867L68.1182 72.4983L46.986 93.8107Z" fill="#545869"/>
<path d="M102.56 28.5879C106.815 28.2138 117.534 29.6916 126.37 38.5964C135.205 47.5013 134.48 57.5726 133.013 61.4952" stroke="#545869" stroke-width="8" stroke-linecap="round"/>
</svg>
