<svg width="400" height="400" viewBox="0 0 400 400" fill="none" xmlns="http://www.w3.org/2000/svg">
<rect width="400" height="400" fill="#202128"/>
<path d="M178.518 69.7789C183.9 68.5548 197.784 69.0942 210.268 81.0438C222.751 92.9934 223.187 108.181 221.845 114.281" stroke="#FEFEFF" stroke-width="8" stroke-linecap="round"/>
<path d="M123.908 132.864L138.598 118.049C140.542 116.088 143.708 116.075 145.669 118.019L188.285 160.275C190.246 162.219 190.259 165.385 188.315 167.346L173.625 182.161L123.908 132.864Z" fill="#FEFEFF"/>
<path d="M242.908 244.864L257.598 230.049C259.542 228.088 262.708 228.075 264.669 230.019L307.357 272.347C309.318 274.291 309.332 277.457 307.387 279.418L292.697 294.233L242.908 244.864Z" fill="#FEFEFF"/>
<path fill-rule="evenodd" clip-rule="evenodd" d="M104.986 151.811C104.747 152.052 104.533 152.308 104.343 152.576L104.265 152.498C85.1304 171.796 85.2626 202.95 104.56 222.084L200.576 317.289C219.044 335.601 248.373 336.267 267.631 319.375L267.697 319.44L268.97 318.156C269.372 317.777 269.77 317.389 270.162 316.994L270.142 316.974L293.054 293.867L243.265 244.498L221.125 266.826C220.476 266.755 219.844 266.642 219.242 266.504L155.381 203.183C155.229 202.18 155.289 201.269 155.462 200.487L175.908 179.867L126.118 130.498L104.986 151.811Z" fill="#8C90A0"/>
<path d="M160.56 86.5879C164.815 86.2138 175.534 87.6916 184.37 96.5964C193.205 105.501 192.48 115.573 191.013 119.495" stroke="#FEFEFF" stroke-width="8" stroke-linecap="round"/>
</svg>
