<svg width="171" height="50" viewBox="0 0 171 50" fill="none" xmlns="http://www.w3.org/2000/svg">
<mask id="mask0_212_260" style="mask-type:luminance" maskUnits="userSpaceOnUse" x="0" y="0" width="48" height="50">
<path d="M47.4155 0H0V50H47.4155V0Z" fill="white"/>
</mask>
<g mask="url(#mask0_212_260)">
<path d="M47.4155 13.9173C45.2952 12.4958 42.7445 11.6667 40 11.6667C32.6362 11.6667 26.6667 17.6362 26.6667 25C26.6667 32.3638 32.6362 38.3333 40 38.3333C42.7445 38.3333 45.2952 37.5042 47.4155 36.0827C43.33 44.3298 34.8272 50 25 50C11.1929 50 0 38.8072 0 25C0 11.1929 11.1929 0 25 0C34.8272 0 43.33 5.67013 47.4155 13.9173Z" fill="#907FDF"/>
<path d="M40 11.6667C42.7443 11.6667 45.2951 12.4958 47.4155 13.9173C47.4121 13.9107 47.409 13.9042 47.4056 13.8976C43.055 10.813 37.7391 9 32 9C17.2723 9 5.33331 20.939 5.33331 35.6667C5.33331 37.5362 5.52561 39.3605 5.89166 41.1215C10.4776 46.5515 17.3361 50 25 50C34.8271 50 43.33 44.3298 47.4155 36.0827C45.2951 37.5042 42.7443 38.3333 40 38.3333C32.6361 38.3333 26.6666 32.3638 26.6666 25C26.6666 17.6362 32.6361 11.6667 40 11.6667Z" fill="#524B9B"/>
<path d="M45.4235 12.8159C43.7665 12.0772 41.9312 11.6667 40 11.6667C32.6362 11.6667 26.6667 17.6362 26.6667 25C26.6667 32.3638 32.6362 38.3333 40 38.3333C42.7443 38.3333 45.2952 37.5042 47.4155 36.0827C43.33 44.3298 34.8272 50 25 50C24.4197 50 23.844 49.9802 23.2737 49.9413C17.6672 46.0252 14 39.5242 14 32.1667C14 20.2005 23.7005 10.5 35.6667 10.5C39.1763 10.5 42.4912 11.3345 45.4235 12.8159Z" fill="#3A3A60"/>
</g>
<path d="M71.6911 38V11.8182H77.2266V33.4361H88.451V38H71.6911ZM108.289 11.8182H113.824V28.821C113.824 30.7301 113.368 32.4006 112.456 33.8324C111.553 35.2642 110.287 36.3807 108.659 37.1818C107.032 37.9744 105.135 38.3707 102.971 38.3707C100.797 38.3707 98.8967 37.9744 97.2689 37.1818C95.641 36.3807 94.3754 35.2642 93.472 33.8324C92.5686 32.4006 92.1169 30.7301 92.1169 28.821V11.8182H97.6524V28.348C97.6524 29.3452 97.8697 30.2315 98.3044 31.0071C98.7476 31.7827 99.3697 32.392 100.171 32.8352C100.972 33.2784 101.905 33.5 102.971 33.5C104.044 33.5 104.978 33.2784 105.77 32.8352C106.571 32.392 107.189 31.7827 107.624 31.0071C108.067 30.2315 108.289 29.3452 108.289 28.348V11.8182ZM140.278 11.8182V38H135.496L124.106 21.5213H123.914V38H118.379V11.8182H123.237L134.538 28.2841H134.768V11.8182H140.278ZM149.364 38H143.432L152.471 11.8182H159.604L168.63 38H162.698L156.14 17.8011H155.935L149.364 38ZM148.993 27.7088H163.005V32.0298H148.993V27.7088Z" fill="#202128"/>
</svg>
