<svg xmlns="http://www.w3.org/2000/svg" width="24" height="24" viewBox="0 0 24 24" fill="none">
  <mask id="mask0_223_875" style="mask-type:alpha" maskUnits="userSpaceOnUse" x="0" y="0" width="24" height="24">
    <rect width="24" height="24" fill="#D9D9D9"/>
  </mask>
  <g mask="url(#mask0_223_875)">
    <path d="M11.925 22C11.225 22 10.5458 21.925 9.8875 21.775C9.22917 21.625 8.63333 21.4333 8.1 21.2C7.33333 20.8667 6.70833 20.4625 6.225 19.9875C5.74167 19.5125 5.5 18.9833 5.5 18.4V12.625C5.5 12.1083 5.69583 11.6333 6.0875 11.2C6.47917 10.7667 6.98333 10.3833 7.6 10.05C8.23333 9.71667 8.92917 9.45833 9.6875 9.275C10.4458 9.09167 11.2167 9 12 9C12.7833 9 13.5542 9.09167 14.3125 9.275C15.0708 9.45833 15.7667 9.71667 16.4 10.05C17.0333 10.3833 17.5417 10.7667 17.925 11.2C18.3083 11.6333 18.5 12.1083 18.5 12.625V18.4C18.5 18.6833 18.4375 18.9583 18.3125 19.225C18.1875 19.4917 18.0083 19.7417 17.775 19.975C17.5417 20.2083 17.2708 20.4292 16.9625 20.6375C16.6542 20.8458 16.3083 21.0333 15.925 21.2C15.9417 21.1167 15.9667 20.8833 16 20.5C16 19.5333 15.6583 18.7083 14.975 18.025C14.2917 17.3417 13.4667 17 12.5 17C11.7833 17 11.15 17.1917 10.6 17.575C10.05 17.9583 9.63333 18.45 9.35 19.05C9.88333 19.1833 10.3708 19.275 10.8125 19.325C11.2542 19.375 11.6417 19.4 11.975 19.4C12.2583 19.4 12.4875 19.3917 12.6625 19.375C12.8375 19.3583 12.95 19.35 13 19.35V21.95C12.8167 21.9667 12.6375 21.9792 12.4625 21.9875C12.2875 21.9958 12.1083 22 11.925 22ZM15 16.5C15.55 16.5 16.0208 16.3042 16.4125 15.9125C16.8042 15.5208 17 15.05 17 14.5C17 13.95 16.8042 13.4792 16.4125 13.0875C16.0208 12.6958 15.55 12.5 15 12.5C14.45 12.5 13.9792 12.6958 13.5875 13.0875C13.1958 13.4792 13 13.95 13 14.5C13 15.05 13.1958 15.5208 13.5875 15.9125C13.9792 16.3042 14.45 16.5 15 16.5ZM12 8C12.8333 8 13.5417 7.7125 14.125 7.1375C14.7083 6.5625 15 5.85 15 5C15 4.16667 14.7083 3.45833 14.125 2.875C13.5417 2.29167 12.8333 2 12 2C11.15 2 10.4375 2.29167 9.8625 2.875C9.2875 3.45833 9 4.16667 9 5C9 5.85 9.2875 6.5625 9.8625 7.1375C10.4375 7.7125 11.15 8 12 8Z" fill="#72768A"/>
  </g>
</svg>