<svg xmlns="http://www.w3.org/2000/svg" width="24" height="24" viewBox="0 0 24 24" fill="none">
  <path d="M10.3335 13.6667H2.00016C1.52794 13.6667 1.13211 13.507 0.812663 13.1875C0.493218 12.8681 0.333496 12.4722 0.333496 12C0.333496 11.5278 0.493218 11.132 0.812663 10.8125C1.13211 10.4931 1.52794 10.3333 2.00016 10.3333H10.3335V2.00001C10.3335 1.52779 10.4932 1.13195 10.8127 0.81251C11.1321 0.493066 11.5279 0.333344 12.0002 0.333344C12.4724 0.333344 12.8682 0.493066 13.1877 0.81251C13.5071 1.13195 13.6668 1.52779 13.6668 2.00001V10.3333H22.0002C22.4724 10.3333 22.8682 10.4931 23.1877 10.8125C23.5071 11.132 23.6668 11.5278 23.6668 12C23.6668 12.4722 23.5071 12.8681 23.1877 13.1875C22.8682 13.507 22.4724 13.6667 22.0002 13.6667H13.6668V22C13.6668 22.4722 13.5071 22.8681 13.1877 23.1875C12.8682 23.507 12.4724 23.6667 12.0002 23.6667C11.5279 23.6667 11.1321 23.507 10.8127 23.1875C10.4932 22.8681 10.3335 22.4722 10.3335 22V13.6667Z" fill="#FEFEFF"/>
</svg>