<svg xmlns="http://www.w3.org/2000/svg" width="24" height="25" viewBox="0 0 24 25" fill="none">
  <mask id="mask0_223_495" style="mask-type:alpha" maskUnits="userSpaceOnUse" x="0" y="0" width="24" height="25">
    <rect y="0.5" width="24" height="24" fill="#D9D9D9"/>
  </mask>
  <g mask="url(#mask0_223_495)">
    <path d="M9.54995 12.5L16.9 19.85C17.15 20.1 17.2708 20.3917 17.2625 20.725C17.2541 21.0583 17.125 21.35 16.875 21.6C16.625 21.85 16.3333 21.975 16 21.975C15.6666 21.975 15.375 21.85 15.125 21.6L7.42495 13.925C7.22495 13.725 7.07495 13.5 6.97495 13.25C6.87495 13 6.82495 12.75 6.82495 12.5C6.82495 12.25 6.87495 12 6.97495 11.75C7.07495 11.5 7.22495 11.275 7.42495 11.075L15.125 3.37499C15.375 3.12499 15.6708 3.00415 16.0125 3.01249C16.3541 3.02082 16.65 3.14999 16.9 3.39999C17.15 3.64999 17.275 3.94165 17.275 4.27499C17.275 4.60832 17.15 4.89999 16.9 5.14999L9.54995 12.5Z" fill="#202128"/>
  </g>
</svg>