<svg xmlns="http://www.w3.org/2000/svg" width="16" height="16" viewBox="0 0 16 16" fill="none">
  <mask id="mask0_446_4523" style="mask-type:alpha" maskUnits="userSpaceOnUse" x="0" y="0" width="16" height="16">
    <rect width="16" height="16" fill="#D9D9D9"/>
  </mask>
  <g mask="url(#mask0_446_4523)">
    <path d="M7.99992 11.3333C8.92214 11.3333 9.70825 11.0083 10.3583 10.3583C11.0083 9.70831 11.3333 8.9222 11.3333 7.99998C11.3333 7.07776 11.0083 6.29165 10.3583 5.64165C9.70825 4.99165 8.92214 4.66665 7.99992 4.66665C7.0777 4.66665 6.29158 4.99165 5.64158 5.64165C4.99159 6.29165 4.66658 7.07776 4.66658 7.99998C4.66658 8.9222 4.99159 9.70831 5.64158 10.3583C6.29158 11.0083 7.0777 11.3333 7.99992 11.3333ZM7.99992 14.6666C7.0777 14.6666 6.21103 14.4916 5.39992 14.1416C4.58881 13.7916 3.88325 13.3166 3.28325 12.7166C2.68325 12.1166 2.20825 11.4111 1.85825 10.6C1.50825 9.78887 1.33325 8.9222 1.33325 7.99998C1.33325 7.07776 1.50825 6.21109 1.85825 5.39998C2.20825 4.58887 2.68325 3.88331 3.28325 3.28331C3.88325 2.68331 4.58881 2.20831 5.39992 1.85831C6.21103 1.50831 7.0777 1.33331 7.99992 1.33331C8.92214 1.33331 9.78881 1.50831 10.5999 1.85831C11.411 2.20831 12.1166 2.68331 12.7166 3.28331C13.3166 3.88331 13.7916 4.58887 14.1416 5.39998C14.4916 6.21109 14.6666 7.07776 14.6666 7.99998C14.6666 8.9222 14.4916 9.78887 14.1416 10.6C13.7916 11.4111 13.3166 12.1166 12.7166 12.7166C12.1166 13.3166 11.411 13.7916 10.5999 14.1416C9.78881 14.4916 8.92214 14.6666 7.99992 14.6666Z" fill="#202128"/>
  </g>
</svg>