<svg xmlns="http://www.w3.org/2000/svg" width="29" height="28" viewBox="0 0 29 28" fill="none">
  <mask id="mask0_71_334" style="mask-type:alpha" maskUnits="userSpaceOnUse" x="0" y="0" width="29" height="28">
    <rect x="0.333313" width="28" height="28" fill="#D9D9D9"/>
  </mask>
  <g mask="url(#mask0_71_334)">
    <path d="M14.3333 8.16658C14.0028 8.16658 13.7257 8.05478 13.5021 7.83117C13.2785 7.60756 13.1667 7.33047 13.1667 6.99992V3.49992C13.1667 3.16936 13.2785 2.89228 13.5021 2.66867C13.7257 2.44506 14.0028 2.33325 14.3333 2.33325C14.6639 2.33325 14.941 2.44506 15.1646 2.66867C15.3882 2.89228 15.5 3.16936 15.5 3.49992V6.99992C15.5 7.33047 15.3882 7.60756 15.1646 7.83117C14.941 8.05478 14.6639 8.16658 14.3333 8.16658ZM20.05 10.6166C19.8361 10.3833 19.7243 10.111 19.7146 9.79992C19.7049 9.48881 19.8167 9.21659 20.05 8.98325L22.5292 6.50409C22.7625 6.27075 23.0396 6.15895 23.3604 6.16867C23.6812 6.17839 23.9583 6.29992 24.1917 6.53325C24.4056 6.76659 24.5174 7.03881 24.5271 7.34992C24.5368 7.66103 24.425 7.93325 24.1917 8.16658L21.7125 10.6458C21.4792 10.8791 21.2021 10.9909 20.8812 10.9812C20.5604 10.9714 20.2833 10.8499 20.05 10.6166ZM8.61666 10.6166C8.38333 10.8499 8.10625 10.9714 7.78541 10.9812C7.46458 10.9909 7.1875 10.8791 6.95416 10.6458L4.475 8.16658C4.24166 7.93325 4.12986 7.66103 4.13958 7.34992C4.1493 7.03881 4.26111 6.76659 4.475 6.53325C4.70833 6.29992 4.98541 6.17839 5.30625 6.16867C5.62708 6.15895 5.90416 6.27075 6.1375 6.50409L8.61666 8.98325C8.85 9.21659 8.9618 9.48881 8.95208 9.79992C8.94236 10.111 8.83055 10.3833 8.61666 10.6166ZM4.3 23.7999L1.61666 21.1749C1.38333 20.9416 1.26666 20.6694 1.26666 20.3583C1.26666 20.0471 1.38333 19.7749 1.61666 19.5416C3.32777 17.6944 5.30138 16.3089 7.5375 15.3853C9.77361 14.4617 12.0389 13.9999 14.3333 13.9999C16.6278 13.9999 18.8882 14.4617 21.1146 15.3853C23.341 16.3089 25.3194 17.6944 27.05 19.5416C27.2833 19.7749 27.4 20.0471 27.4 20.3583C27.4 20.6694 27.2833 20.9416 27.05 21.1749L24.3667 23.7999C24.1528 24.0138 23.9049 24.1305 23.6229 24.1499C23.341 24.1694 23.0833 24.0916 22.85 23.9166L19.4667 21.3499C19.3111 21.2333 19.1944 21.0971 19.1167 20.9416C19.0389 20.786 19 20.611 19 20.4166V17.0916C18.2611 16.8583 17.5028 16.6735 16.725 16.5374C15.9472 16.4013 15.15 16.3333 14.3333 16.3333C13.5167 16.3333 12.7194 16.4013 11.9417 16.5374C11.1639 16.6735 10.4056 16.8583 9.66666 17.0916V20.4166C9.66666 20.611 9.62777 20.786 9.55 20.9416C9.47222 21.0971 9.35555 21.2333 9.2 21.3499L5.81666 23.9166C5.58333 24.0916 5.32569 24.1694 5.04375 24.1499C4.7618 24.1305 4.51388 24.0138 4.3 23.7999ZM7.33333 17.9083C6.76944 18.1999 6.225 18.5353 5.7 18.9145C5.175 19.2937 4.63055 19.7166 4.06666 20.1833L5.23333 21.3499L7.33333 19.7166V17.9083ZM21.3333 17.9666V19.7166L23.4333 21.3499L24.6 20.2416C24.0361 19.736 23.4917 19.2985 22.9667 18.9291C22.4417 18.5596 21.8972 18.2388 21.3333 17.9666Z" fill="#AAAEC1"/>
  </g>
</svg>