<svg xmlns="http://www.w3.org/2000/svg" width="28" height="28" viewBox="0 0 28 28" fill="none">
  <mask id="mask0_71_304" style="mask-type:alpha" maskUnits="userSpaceOnUse" x="0" y="0" width="28" height="28">
    <rect width="28" height="28" fill="#D9D9D9"/>
  </mask>
  <g mask="url(#mask0_71_304)">
    <path d="M7.00002 22.1666H10.5V16.3333C10.5 16.0027 10.6118 15.7256 10.8354 15.502C11.059 15.2784 11.3361 15.1666 11.6667 15.1666H16.3334C16.6639 15.1666 16.941 15.2784 17.1646 15.502C17.3882 15.7256 17.5 16.0027 17.5 16.3333V22.1666H21V11.6666L14 6.41659L7.00002 11.6666V22.1666ZM4.66669 22.1666V11.6666C4.66669 11.2971 4.74933 10.9471 4.9146 10.6166C5.07988 10.286 5.30835 10.0138 5.60002 9.79992L12.6 4.54992C13.0084 4.23881 13.475 4.08325 14 4.08325C14.525 4.08325 14.9917 4.23881 15.4 4.54992L22.4 9.79992C22.6917 10.0138 22.9202 10.286 23.0854 10.6166C23.2507 10.9471 23.3334 11.2971 23.3334 11.6666V22.1666C23.3334 22.8083 23.1049 23.3576 22.6479 23.8145C22.191 24.2714 21.6417 24.4999 21 24.4999H16.3334C16.0028 24.4999 15.7257 24.3881 15.5021 24.1645C15.2785 23.9409 15.1667 23.6638 15.1667 23.3333V17.4999H12.8334V23.3333C12.8334 23.6638 12.7215 23.9409 12.4979 24.1645C12.2743 24.3881 11.9972 24.4999 11.6667 24.4999H7.00002C6.35835 24.4999 5.80905 24.2714 5.3521 23.8145C4.89516 23.3576 4.66669 22.8083 4.66669 22.1666Z" fill="#AAAEC1"/>
  </g>
</svg>