<svg xmlns="http://www.w3.org/2000/svg" width="29" height="28" viewBox="0 0 29 28" fill="none">
  <mask id="mask0_71_340" style="mask-type:alpha" maskUnits="userSpaceOnUse" x="0" y="0" width="29" height="28">
    <rect x="0.666626" width="28" height="28" fill="#D9D9D9"/>
  </mask>
  <g mask="url(#mask0_71_340)">
    <path d="M22.8333 19.8333V15.1666H6.49996V19.8333H22.8333ZM22.8333 12.8333V8.16659H6.49996V12.8333H22.8333ZM6.49996 22.1666C5.85829 22.1666 5.30899 21.9381 4.85204 21.4812C4.3951 21.0242 4.16663 20.4749 4.16663 19.8333V8.16659C4.16663 7.52492 4.3951 6.97561 4.85204 6.51867C5.30899 6.06172 5.85829 5.83325 6.49996 5.83325H22.8333C23.475 5.83325 24.0243 6.06172 24.4812 6.51867C24.9382 6.97561 25.1666 7.52492 25.1666 8.16659V19.8333C25.1666 20.4749 24.9382 21.0242 24.4812 21.4812C24.0243 21.9381 23.475 22.1666 22.8333 22.1666H6.49996Z" fill="#AAAEC1"/>
  </g>
</svg>