<svg xmlns="http://www.w3.org/2000/svg" width="28" height="28" viewBox="0 0 28 28" fill="none">
  <mask id="mask0_71_346" style="mask-type:alpha" maskUnits="userSpaceOnUse" x="0" y="0" width="28" height="28">
    <rect width="28" height="28" fill="#D9D9D9"/>
  </mask>
  <g mask="url(#mask0_71_346)">
    <path d="M17.5 24.5C16.8583 24.5 16.309 24.2715 15.8521 23.8146C15.3951 23.3576 15.1667 22.8083 15.1667 22.1667V17.5C15.1667 16.8583 15.3951 16.309 15.8521 15.8521C16.309 15.3951 16.8583 15.1667 17.5 15.1667H22.1667C22.8083 15.1667 23.3576 15.3951 23.8146 15.8521C24.2715 16.309 24.5 16.8583 24.5 17.5V22.1667C24.5 22.8083 24.2715 23.3576 23.8146 23.8146C23.3576 24.2715 22.8083 24.5 22.1667 24.5H17.5ZM17.5 12.8333C16.8583 12.8333 16.309 12.6049 15.8521 12.1479C15.3951 11.691 15.1667 11.1417 15.1667 10.5V5.83333C15.1667 5.19167 15.3951 4.64236 15.8521 4.18542C16.309 3.72847 16.8583 3.5 17.5 3.5H22.1667C22.8083 3.5 23.3576 3.72847 23.8146 4.18542C24.2715 4.64236 24.5 5.19167 24.5 5.83333V10.5C24.5 11.1417 24.2715 11.691 23.8146 12.1479C23.3576 12.6049 22.8083 12.8333 22.1667 12.8333H17.5ZM5.83333 12.8333C5.19167 12.8333 4.64236 12.6049 4.18542 12.1479C3.72847 11.691 3.5 11.1417 3.5 10.5V5.83333C3.5 5.19167 3.72847 4.64236 4.18542 4.18542C4.64236 3.72847 5.19167 3.5 5.83333 3.5H10.5C11.1417 3.5 11.691 3.72847 12.1479 4.18542C12.6049 4.64236 12.8333 5.19167 12.8333 5.83333V10.5C12.8333 11.1417 12.6049 11.691 12.1479 12.1479C11.691 12.6049 11.1417 12.8333 10.5 12.8333H5.83333ZM5.83333 24.5C5.19167 24.5 4.64236 24.2715 4.18542 23.8146C3.72847 23.3576 3.5 22.8083 3.5 22.1667V17.5C3.5 16.8583 3.72847 16.309 4.18542 15.8521C4.64236 15.3951 5.19167 15.1667 5.83333 15.1667H10.5C11.1417 15.1667 11.691 15.3951 12.1479 15.8521C12.6049 16.309 12.8333 16.8583 12.8333 17.5V22.1667C12.8333 22.8083 12.6049 23.3576 12.1479 23.8146C11.691 24.2715 11.1417 24.5 10.5 24.5H5.83333Z" fill="#202128"/>
  </g>
</svg>