<svg xmlns="http://www.w3.org/2000/svg" width="29" height="28" viewBox="0 0 29 28" fill="none">
  <mask id="mask0_71_240" style="mask-type:alpha" maskUnits="userSpaceOnUse" x="0" y="0" width="29" height="28">
    <rect x="0.333313" width="28" height="28" fill="#D9D9D9"/>
  </mask>
  <g mask="url(#mask0_71_240)">
    <path d="M14.3333 8.16671C14.0028 8.16671 13.7257 8.0549 13.5021 7.83129C13.2785 7.60768 13.1667 7.3306 13.1667 7.00004V3.50004C13.1667 3.16949 13.2785 2.8924 13.5021 2.66879C13.7257 2.44518 14.0028 2.33337 14.3333 2.33337C14.6639 2.33337 14.941 2.44518 15.1646 2.66879C15.3882 2.8924 15.5 3.16949 15.5 3.50004V7.00004C15.5 7.3306 15.3882 7.60768 15.1646 7.83129C14.941 8.0549 14.6639 8.16671 14.3333 8.16671ZM20.05 10.6167C19.8361 10.3834 19.7243 10.1112 19.7146 9.80004C19.7049 9.48893 19.8167 9.21671 20.05 8.98337L22.5292 6.50421C22.7625 6.27087 23.0396 6.15907 23.3604 6.16879C23.6812 6.17851 23.9583 6.30004 24.1917 6.53337C24.4056 6.76671 24.5174 7.03893 24.5271 7.35004C24.5368 7.66115 24.425 7.93337 24.1917 8.16671L21.7125 10.6459C21.4792 10.8792 21.2021 10.991 20.8812 10.9813C20.5604 10.9716 20.2833 10.85 20.05 10.6167ZM8.61666 10.6167C8.38333 10.85 8.10625 10.9716 7.78541 10.9813C7.46458 10.991 7.1875 10.8792 6.95416 10.6459L4.475 8.16671C4.24166 7.93337 4.12986 7.66115 4.13958 7.35004C4.1493 7.03893 4.26111 6.76671 4.475 6.53337C4.70833 6.30004 4.98541 6.17851 5.30625 6.16879C5.62708 6.15907 5.90416 6.27087 6.1375 6.50421L8.61666 8.98337C8.85 9.21671 8.9618 9.48893 8.95208 9.80004C8.94236 10.1112 8.83055 10.3834 8.61666 10.6167ZM4.3 23.8L1.61666 21.175C1.38333 20.9417 1.26666 20.6695 1.26666 20.3584C1.26666 20.0473 1.38333 19.775 1.61666 19.5417C3.32777 17.6945 5.30138 16.3091 7.5375 15.3855C9.77361 14.4618 12.0389 14 14.3333 14C16.6278 14 18.8882 14.4618 21.1146 15.3855C23.341 16.3091 25.3194 17.6945 27.05 19.5417C27.2833 19.775 27.4 20.0473 27.4 20.3584C27.4 20.6695 27.2833 20.9417 27.05 21.175L24.3667 23.8C24.1528 24.0139 23.9049 24.1306 23.6229 24.15C23.341 24.1695 23.0833 24.0917 22.85 23.9167L19.4667 21.35C19.3111 21.2334 19.1944 21.0973 19.1167 20.9417C19.0389 20.7862 19 20.6112 19 20.4167V17.0917C18.2611 16.8584 17.5028 16.6737 16.725 16.5375C15.9472 16.4014 15.15 16.3334 14.3333 16.3334C13.5167 16.3334 12.7194 16.4014 11.9417 16.5375C11.1639 16.6737 10.4056 16.8584 9.66666 17.0917V20.4167C9.66666 20.6112 9.62777 20.7862 9.55 20.9417C9.47222 21.0973 9.35555 21.2334 9.2 21.35L5.81666 23.9167C5.58333 24.0917 5.32569 24.1695 5.04375 24.15C4.7618 24.1306 4.51388 24.0139 4.3 23.8Z" fill="#202128"/>
  </g>
</svg>