<svg xmlns="http://www.w3.org/2000/svg" width="28" height="28" viewBox="0 0 28 28" fill="none">
  <mask id="mask0_60_382" style="mask-type:alpha" maskUnits="userSpaceOnUse" x="0" y="0" width="28" height="28">
    <rect width="28" height="28" fill="#D9D9D9"/>
  </mask>
  <g mask="url(#mask0_60_382)">
    <path d="M4.66669 22.1667V11.6667C4.66669 11.2972 4.74933 10.9472 4.9146 10.6167C5.07988 10.2861 5.30835 10.0139 5.60002 9.80001L12.6 4.55001C13.0084 4.2389 13.475 4.08334 14 4.08334C14.525 4.08334 14.9917 4.2389 15.4 4.55001L22.4 9.80001C22.6917 10.0139 22.9202 10.2861 23.0854 10.6167C23.2507 10.9472 23.3334 11.2972 23.3334 11.6667V22.1667C23.3334 22.8083 23.1049 23.3577 22.6479 23.8146C22.191 24.2715 21.6417 24.5 21 24.5H17.5C17.1695 24.5 16.8924 24.3882 16.6688 24.1646C16.4452 23.941 16.3334 23.6639 16.3334 23.3333V17.5C16.3334 17.1695 16.2215 16.8924 15.9979 16.6688C15.7743 16.4452 15.4972 16.3333 15.1667 16.3333H12.8334C12.5028 16.3333 12.2257 16.4452 12.0021 16.6688C11.7785 16.8924 11.6667 17.1695 11.6667 17.5V23.3333C11.6667 23.6639 11.5549 23.941 11.3313 24.1646C11.1077 24.3882 10.8306 24.5 10.5 24.5H7.00002C6.35835 24.5 5.80905 24.2715 5.3521 23.8146C4.89516 23.3577 4.66669 22.8083 4.66669 22.1667Z" fill="#202128"/>
  </g>
</svg>