<svg xmlns="http://www.w3.org/2000/svg" width="29" height="28" viewBox="0 0 29 28" fill="none">
  <mask id="mask0_71_284" style="mask-type:alpha" maskUnits="userSpaceOnUse" x="0" y="0" width="29" height="28">
    <rect x="0.666626" width="28" height="28" fill="#D9D9D9"/>
  </mask>
  <g mask="url(#mask0_71_284)">
    <path d="M6.49996 22.1667C5.85829 22.1667 5.30899 21.9382 4.85204 21.4813C4.3951 21.0243 4.16663 20.475 4.16663 19.8334V17.5C4.16663 16.8584 4.3951 16.3091 4.85204 15.8521C5.30899 15.3952 5.85829 15.1667 6.49996 15.1667H22.8333C23.475 15.1667 24.0243 15.3952 24.4812 15.8521C24.9382 16.3091 25.1666 16.8584 25.1666 17.5V19.8334C25.1666 20.475 24.9382 21.0243 24.4812 21.4813C24.0243 21.9382 23.475 22.1667 22.8333 22.1667H6.49996ZM6.49996 12.8334C5.85829 12.8334 5.30899 12.6049 4.85204 12.148C4.3951 11.691 4.16663 11.1417 4.16663 10.5V8.16671C4.16663 7.52504 4.3951 6.97574 4.85204 6.51879C5.30899 6.06185 5.85829 5.83337 6.49996 5.83337H22.8333C23.475 5.83337 24.0243 6.06185 24.4812 6.51879C24.9382 6.97574 25.1666 7.52504 25.1666 8.16671V10.5C25.1666 11.1417 24.9382 11.691 24.4812 12.148C24.0243 12.6049 23.475 12.8334 22.8333 12.8334H6.49996Z" fill="#202128"/>
  </g>
</svg>